<?xml version="1.0" encoding="utf-8"?>
<!-- Generator: Adobe Illustrator 24.3.0, SVG Export Plug-In . SVG Version: 6.00 Build 0)  -->
<svg version="1.1" id="Layer_1" xmlns="http://www.w3.org/2000/svg" xmlns:xlink="http://www.w3.org/1999/xlink" x="0px" y="0px"
	 viewBox="0 0 50 53.7" style="enable-background:new 0 0 50 53.7;" xml:space="preserve">
<style type="text/css">
	.st0{fill-rule:evenodd;clip-rule:evenodd;fill:#FFFFFF;}
	.st1{fill-rule:evenodd;clip-rule:evenodd;fill:#ED0000;}
</style>
<g id="Symbols_1_">
	<g id="Brand-_x2F_-Logo-_x2F_-White_1_">
		<g id="Logo_1_">
			<polygon id="Fill-1_1_" class="st0" points="7,38 7,44.7 5.5,44.7 5.5,40 3.5,43.3 1.5,40 1.5,44.7 0,44.7 0,38 1.9,38 3.5,40.7 
				5,38 			"/>
			<polygon id="Fill-2_1_" class="st0" points="8.2,44.7 9.7,44.7 9.7,38 8.2,38 			"/>
			<polygon id="Fill-3_1_" class="st0" points="12.2,39.4 10.4,39.4 10.4,38 15.4,38 15.4,39.4 13.7,39.4 13.7,44.7 12.2,44.7 			
				"/>
			<path id="Fill-4_1_" class="st0" d="M16,44.6v-1.4c0.3,0.1,1.1,0.2,2,0.2c0.8,0,1.1-0.1,1.1-0.5c0-0.5-0.3-0.6-1.4-1
				c-1-0.5-1.8-0.9-1.8-2c0-1.4,0.8-1.9,2.5-1.9c0.8,0,1.5,0.1,1.8,0.1v1.4c-0.4,0-1.1-0.1-1.8-0.1c-0.9,0-1.1,0.1-1.1,0.5
				c0,0.4,0.5,0.6,1.2,0.9c1.1,0.5,2,0.9,2,2.2c0,1.3-0.8,1.9-2.6,1.9C17.3,44.8,16.6,44.7,16,44.6"/>
			<path id="Fill-6_1_" class="st0" d="M21.4,42.4V38h1.5v4.3c0,0.8,0.4,1,1.2,1c0.7,0,1.2-0.3,1.2-1V38h1.5v4.4
				c0,1.6-1.1,2.3-2.7,2.3C22.5,44.8,21.4,44,21.4,42.4"/>
			<path id="Fill-8_1_" class="st0" d="M30.8,43.4c0.6,0,0.8-0.2,0.8-0.8c0-0.5-0.2-0.7-0.8-0.7h-1.4v1.5H30.8z M30.7,40.7
				c0.6,0,0.8-0.3,0.8-0.8c0-0.5-0.3-0.7-0.8-0.7h-1.2v1.4H30.7z M28,38h2.9c1.4,0,2.1,0.5,2.1,1.7c0,1-0.6,1.3-1.1,1.5
				c0.6,0.2,1.2,0.5,1.2,1.6c0,1.2-0.7,1.9-2.2,1.9h-3V38z"/>
			<polygon id="Fill-10_1_" class="st0" points="34.1,44.7 35.5,44.7 35.5,38 34.1,38 			"/>
			<path id="Fill-12_1_" class="st0" d="M36.6,44.6v-1.4c0.3,0.1,1.1,0.2,2,0.2c0.8,0,1.1-0.1,1.1-0.5c0-0.5-0.3-0.6-1.4-1
				c-1-0.5-1.8-0.9-1.8-2c0-1.4,0.8-1.9,2.5-1.9c0.8,0,1.5,0.1,1.8,0.1v1.4c-0.4,0-1.1-0.1-1.8-0.1c-0.9,0-1.1,0.1-1.1,0.5
				c0,0.4,0.5,0.6,1.2,0.9c1.1,0.5,2,0.9,2,2.2c0,1.3-0.8,1.9-2.6,1.9C37.9,44.8,37.2,44.7,36.6,44.6"/>
			<polygon id="Fill-13_1_" class="st0" points="47.3,38 47.3,44.7 45.8,44.7 45.8,42 43.5,42 43.5,44.7 42,44.7 42,38 43.5,38 
				43.5,40.7 45.8,40.7 45.8,38 			"/>
			<polygon id="Fill-14_1_" class="st0" points="48.5,44.7 50,44.7 50,38 48.5,38 			"/>
			<polygon id="Fill-15_1_" class="st0" points="13.9,47 13.9,53.6 12.4,53.6 12.4,48.9 10.4,52.3 8.4,48.9 8.4,53.6 7,53.6 7,47 
				8.9,47 10.4,49.7 12,47 			"/>
			<path id="Fill-16_1_" class="st0" d="M19.1,50.3c0-1.4-0.2-2-1.3-2c-1.1,0-1.3,0.7-1.3,2c0,1.4,0.2,2.1,1.3,2.1
				C18.9,52.3,19.1,51.7,19.1,50.3 M15,50.3c0-2.4,0.9-3.4,2.9-3.4c2,0,2.9,1,2.9,3.4c0,2.4-0.9,3.4-2.9,3.4
				C15.9,53.7,15,52.7,15,50.3"/>
			<polygon id="Fill-17_1_" class="st0" points="22.7,48.4 20.9,48.4 20.9,47 26,47 26,48.4 24.2,48.4 24.2,53.6 22.7,53.6 			"/>
			<path id="Fill-18_1_" class="st0" d="M30.4,50.3c0-1.4-0.2-2-1.3-2c-1.1,0-1.3,0.7-1.3,2c0,1.4,0.2,2.1,1.3,2.1
				C30.2,52.3,30.4,51.7,30.4,50.3 M26.2,50.3c0-2.4,0.9-3.4,2.9-3.4c2,0,2.9,1,2.9,3.4c0,2.4-0.9,3.4-2.9,3.4
				C27.1,53.7,26.2,52.7,26.2,50.3"/>
			<path id="Fill-19_1_" class="st0" d="M35.6,49.9c0.7,0,0.9-0.3,0.9-0.8c0-0.5-0.2-0.9-0.9-0.9h-1.1v1.7H35.6z M33,47h2.7
				c1.4,0,2.3,0.5,2.3,2.1c0,1-0.5,1.7-1.4,1.9l1.6,2.6h-1.7l-1.4-2.4h-0.7v2.4H33V47z"/>
			<path id="Fill-20_1_" class="st0" d="M38.9,53.5v-1.4c0.3,0.1,1.1,0.2,2,0.2c0.8,0,1.1-0.1,1.1-0.5c0-0.5-0.3-0.6-1.4-1
				c-1-0.5-1.8-0.9-1.8-2c0-1.4,0.8-1.9,2.5-1.9c0.8,0,1.5,0.1,1.8,0.1v1.4c-0.4,0-1.1-0.1-1.8-0.1c-0.9,0-1.1,0.1-1.1,0.5
				c0,0.4,0.5,0.6,1.2,0.9c1.1,0.5,2,0.9,2,2.2c0,1.3-0.8,1.9-2.6,1.9C40.1,53.7,39.5,53.6,38.9,53.5"/>
			<polygon id="Fill-21_1_" class="st1" points="18.6,11 24.9,22 31.3,11 24.9,0 			"/>
			<polygon id="Fill-22_1_" class="st1" points="37.6,22 24.9,22 31.3,33 44,33 			"/>
			<polygon id="Fill-23_1_" class="st1" points="12.2,22 24.9,22 18.6,33 5.9,33 			"/>
		</g>
	</g>
</g>
</svg>
